<?xml version="1.0" standalone="no"?>
<!DOCTYPE svg PUBLIC "-//W3C//DTD SVG 20010904//EN"
 "http://www.w3.org/TR/2001/REC-SVG-20010904/DTD/svg10.dtd">
<svg version="1.0" xmlns="http://www.w3.org/2000/svg"
 width="600.000000pt" height="600.000000pt" viewBox="0 0 600.000000 600.000000"
 preserveAspectRatio="xMidYMid meet">

<g transform="translate(0.000000,600.000000) scale(0.100000,-0.100000)"
fill="#000000" stroke="none">
<path d="M1287 4489 c-105 -25 -200 -104 -251 -209 l-31 -65 0 -1215 0 -1215
31 -65 c40 -83 102 -145 184 -184 l65 -31 1715 0 1715 0 65 31 c82 39 144 101
184 184 l31 65 0 1215 0 1215 -31 65 c-40 83 -102 145 -184 184 l-65 31 -1695
2 c-965 0 -1711 -3 -1733 -8z m2863 -263 c-33 -31 -1131 -897 -1145 -902 -9
-4 -1106 854 -1160 907 -19 19 -7 19 1155 19 l1175 0 -25 -24z m-1902 -963
c405 -312 744 -567 752 -567 8 0 347 255 752 567 405 312 739 567 742 567 3 0
6 -468 6 -1040 l0 -1040 -1500 0 -1500 0 0 1040 c0 572 2 1040 5 1040 3 0 338
-255 743 -567z"/>
</g>
</svg>
