<?xml version="1.0" standalone="no"?>
<!DOCTYPE svg PUBLIC "-//W3C//DTD SVG 20010904//EN"
 "http://www.w3.org/TR/2001/REC-SVG-20010904/DTD/svg10.dtd">
<svg version="1.0" xmlns="http://www.w3.org/2000/svg"
 width="220.000000pt" height="229.000000pt" viewBox="0 0 220.000000 229.000000"
 preserveAspectRatio="xMidYMid meet">

<g transform="translate(0.000000,229.000000) scale(0.100000,-0.100000)"
fill="#000000" stroke="none">
<path d="M903 2165 c-323 -58 -611 -284 -755 -591 -99 -213 -121 -474 -57
-705 27 -98 105 -259 167 -339 71 -95 207 -218 301 -274 95 -57 225 -108 333
-130 97 -20 288 -21 399 -1 598 104 980 710 818 1297 -86 311 -322 571 -626
688 -169 66 -400 88 -580 55z m422 -144 c318 -83 565 -325 655 -643 30 -102
37 -287 17 -394 -35 -185 -118 -338 -261 -479 -116 -115 -205 -171 -355 -222
-94 -31 -100 -32 -271 -32 -189 -1 -221 4 -355 58 -113 46 -188 94 -279 181
-180 172 -269 362 -283 610 -7 125 7 222 46 337 92 268 315 483 595 573 137
44 344 49 491 11z"/>
<path d="M540 1150 l0 -420 565 0 565 0 0 420 0 420 -565 0 -565 0 0 -420z
m855 349 c-33 -33 -109 -106 -168 -162 -104 -97 -109 -100 -132 -86 -13 8 -91
80 -174 162 l-151 147 342 0 342 0 -59 -61z m113 -334 c0 -93 -3 -180 -6 -193
-7 -21 -12 -19 -118 55 -61 43 -124 87 -139 99 l-28 21 139 121 c165 144 152
153 152 -103z m-634 93 c60 -51 111 -98 113 -104 4 -11 -231 -204 -257 -212
-11 -4 -15 384 -4 412 8 21 18 15 148 -96z m196 -163 l42 -35 40 35 41 35 61
-43 c34 -24 105 -74 159 -112 l97 -68 0 -79 0 -78 -395 0 -395 0 0 73 0 74 88
69 c117 92 212 164 217 164 2 0 22 -16 45 -35z"/>
</g>
</svg>
