<?xml version="1.0" standalone="no"?>
<!DOCTYPE svg PUBLIC "-//W3C//DTD SVG 20010904//EN"
 "http://www.w3.org/TR/2001/REC-SVG-20010904/DTD/svg10.dtd">
<svg version="1.0" xmlns="http://www.w3.org/2000/svg"
 width="735.000000pt" height="386.000000pt" viewBox="0 0 735.000000 386.000000"
 preserveAspectRatio="xMidYMid meet">

<g transform="translate(0.000000,386.000000) scale(0.100000,-0.100000)"
fill="#000000" stroke="none">
<path d="M3600 3708 l0 -155 107 -7 c298 -19 586 -118 840 -288 155 -104 354
-304 456 -458 171 -259 269 -544 286 -835 l6 -110 153 -3 152 -3 0 81 c0 236
-86 571 -207 814 -324 647 -958 1066 -1682 1112 l-111 7 0 -155z"/>
<path d="M2098 3703 c-197 -200 -259 -300 -316 -508 -37 -137 -42 -383 -12
-560 90 -534 413 -1100 929 -1629 367 -375 796 -675 1203 -842 543 -223 1035
-215 1361 20 34 24 124 107 200 184 l139 139 -149 95 c-81 53 -316 204 -521
336 l-372 239 -267 -100 -267 -100 -50 28 c-96 52 -301 192 -402 272 -315 252
-625 605 -802 917 -49 84 -50 90 -38 120 7 17 52 137 100 267 l88 235 -332
517 c-183 284 -335 517 -339 517 -4 0 -73 -66 -153 -147z"/>
<path d="M3600 3239 c0 -2 -1 -71 -1 -154 l-1 -150 87 -7 c429 -37 799 -328
934 -736 29 -88 42 -150 56 -285 l7 -58 151 3 152 3 -3 70 c-9 208 -79 441
-186 623 -204 345 -525 577 -915 662 -80 18 -281 38 -281 29z"/>
<path d="M3600 2466 l0 -153 61 -6 c133 -12 288 -123 349 -252 16 -34 35 -94
42 -133 l12 -72 154 0 154 0 -7 63 c-21 203 -103 368 -250 506 -122 113 -327
201 -469 201 l-46 0 0 -154z"/>
</g>
</svg>
